<svg xmlns="http://www.w3.org/2000/svg" width="920" height="540" viewBox="0 0 920 540">
<rect width="100%" height="100%" fill="#ffffff"/>
<text x="92" y="30" font-family="Helvetica,Arial" font-size="22" font-weight="700" fill="#111827">Quality cost of B8 sparsity</text>
<line x1="92" y1="464.0" x2="886" y2="464.0" stroke="#e5e7eb"/>
<text x="80" y="469.0" text-anchor="end" font-family="Helvetica,Arial" font-size="13" fill="#4b5563">0</text>
<line x1="92" y1="379.0" x2="886" y2="379.0" stroke="#e5e7eb"/>
<text x="80" y="384.0" text-anchor="end" font-family="Helvetica,Arial" font-size="13" fill="#4b5563">5</text>
<line x1="92" y1="294.0" x2="886" y2="294.0" stroke="#e5e7eb"/>
<text x="80" y="299.0" text-anchor="end" font-family="Helvetica,Arial" font-size="13" fill="#4b5563">10</text>
<line x1="92" y1="209.0" x2="886" y2="209.0" stroke="#e5e7eb"/>
<text x="80" y="214.0" text-anchor="end" font-family="Helvetica,Arial" font-size="13" fill="#4b5563">15</text>
<line x1="92" y1="124.0" x2="886" y2="124.0" stroke="#e5e7eb"/>
<text x="80" y="129.0" text-anchor="end" font-family="Helvetica,Arial" font-size="13" fill="#4b5563">20</text>
<text x="92.0" y="492" text-anchor="middle" font-family="Helvetica,Arial" font-size="13" fill="#4b5563">0</text>
<text x="356.7" y="492" text-anchor="middle" font-family="Helvetica,Arial" font-size="13" fill="#4b5563">10</text>
<text x="621.3" y="492" text-anchor="middle" font-family="Helvetica,Arial" font-size="13" fill="#4b5563">20</text>
<text x="886.0" y="492" text-anchor="middle" font-family="Helvetica,Arial" font-size="13" fill="#4b5563">30</text>
<line x1="92" y1="379.0" x2="886" y2="379.0" stroke="#111827" stroke-width="2" stroke-dasharray="7 6"/>
<text x="882" y="371.0" text-anchor="end" font-family="Helvetica,Arial" font-size="12" fill="#111827">5% quality gate</text>
<polyline points="356.7,421.2 621.3,314.9 886.0,121.1" fill="none" stroke="#2563eb" stroke-width="4"/>
<circle cx="356.7" cy="421.2" r="6" fill="#2563eb" stroke="#fff" stroke-width="2"/>
<circle cx="621.3" cy="314.9" r="6" fill="#2563eb" stroke="#fff" stroke-width="2"/>
<circle cx="886.0" cy="121.1" r="6" fill="#2563eb" stroke="#fff" stroke-width="2"/>
<line x1="92" y1="517" x2="122" y2="517" stroke="#2563eb" stroke-width="4"/>
<text x="132" y="522" font-family="Helvetica,Arial" font-size="14" fill="#111827">Llama 3.2 1B</text>
<polyline points="356.7,441.3 621.3,410.3 886.0,347.1" fill="none" stroke="#e11d48" stroke-width="4"/>
<circle cx="356.7" cy="441.3" r="6" fill="#e11d48" stroke="#fff" stroke-width="2"/>
<circle cx="621.3" cy="410.3" r="6" fill="#e11d48" stroke="#fff" stroke-width="2"/>
<circle cx="886.0" cy="347.1" r="6" fill="#e11d48" stroke="#fff" stroke-width="2"/>
<line x1="312" y1="517" x2="342" y2="517" stroke="#e11d48" stroke-width="4"/>
<text x="352" y="522" font-family="Helvetica,Arial" font-size="14" fill="#111827">TinyLlama 1.1B</text>
<text x="489.0" y="500" text-anchor="middle" font-family="Helvetica,Arial" font-size="15" fill="#111827">B8 sparsity (%)</text>
<text transform="translate(24 260.0) rotate(-90)" text-anchor="middle" font-family="Helvetica,Arial" font-size="15" fill="#111827">Perplexity increase (%)</text>
</svg>
